<svg width="18" height="5" viewBox="0 0 18 5" fill="none" xmlns="http://www.w3.org/2000/svg">
<path d="M2.6403 0H1.93854L2.6403 1.64761L2.02191 3.07369L0.701764 0H0L1.80652 4.23671H2.24425L2.99466 2.49218L3.74506 4.23671H4.18279L5.98931 0H5.28755L3.9674 3.10138L2.64725 0H2.6403Z" fill="#0046C7"/>
<path d="M9.32461 0L8.11563 2.1322L6.90665 0H6.15625L7.80991 2.88678V4.21594H8.44914V2.88678L10.075 0H9.32461Z" fill="#0046C7"/>
<path d="M14.0146 4.23665H17.3567V3.50977H14.0146V4.23665Z" fill="#0046C7"/>
<path d="M14.0146 0.726887H17.3567V0H14.0146V0.726887Z" fill="#0046C7"/>
<path d="M14.0146 2.47152H17.3567V1.74463H14.0146V2.47152Z" fill="#0046C7"/>
<path d="M10.2694 0V0.706119H12.472L10.0054 4.24363H13.5906V3.54444H11.3255L13.813 0.00692223H10.2694V0Z" fill="#0046C7"/>
</svg>
